<svg xmlns="http://www.w3.org/2000/svg" xmlns:xlink="http://www.w3.org/1999/xlink" width="50" height="50" version="1.1" viewBox="0 -20 104 104"><title>14-multimeda-video-movie</title><desc>Created with Sketch.</desc><g id="3.Multimedia" fill="none" fill-rule="evenodd" stroke="none" stroke-linecap="round" stroke-linejoin="round" stroke-width="1"><g id="Multimedia-(Color)" fill="#2f80ed" stroke="#263238" stroke-width="3.5" transform="translate(-698.000000, -320.000000)"><g id="14-multimeda-video-movie" transform="translate(700.000000, 322.000000)"><path id="Layer-1" d="M70.0180857,18.8103379 L70.0180857,4.99952863 C70.0180857,2.24256556 67.7761835,0 65.0106569,0 L5.00742881,0 C2.23069592,0 0,2.23836521 0,4.99952863 L0,55.0004714 C0,57.7574344 2.24190224,60 5.00742881,60 L65.0106569,60 C67.7873898,60 70.0180857,57.7616348 70.0180857,55.0004714 L70.0180857,41.301228 L95.5450927,54.3461555 C98.0097215,55.6056413 100,54.3847254 100,51.6240162 L100,8.48754976 C100,5.72111884 98.0054701,4.50809719 95.5450927,5.76541045 L70.0180857,18.8103379 L70.0180857,18.8103379 Z"/></g></g></g></svg>